<?xml version="1.0" standalone="no"?>
<!DOCTYPE svg PUBLIC "-//W3C//DTD SVG 20010904//EN"
 "http://www.w3.org/TR/2001/REC-SVG-20010904/DTD/svg10.dtd">
<svg version="1.0" xmlns="http://www.w3.org/2000/svg"
 width="759.000000pt" height="759.000000pt" viewBox="0 0 759.000000 759.000000"
 preserveAspectRatio="xMidYMid meet">
<metadata>
Created by potrace 1.11, written by Peter Selinger 2001-2013
</metadata>
<g transform="translate(0.000000,759.000000) scale(0.100000,-0.100000)"
fill="#000000" stroke="none">
<path d="M3549 7486 c-2 -2 -45 -7 -94 -10 -50 -4 -99 -8 -110 -10 -11 -2 -46
-7 -78 -10 -32 -4 -95 -14 -140 -22 -45 -8 -95 -18 -112 -20 -16 -3 -93 -21
-169 -40 -357 -89 -715 -237 -1026 -422 -108 -64 -305 -194 -320 -211 -3 -4
-32 -26 -64 -50 -229 -170 -513 -459 -717 -727 -67 -88 -209 -307 -259 -399
-24 -44 -53 -98 -65 -120 -18 -34 -58 -119 -120 -260 -61 -136 -171 -488 -199
-635 -27 -140 -32 -169 -42 -245 -3 -27 -8 -58 -10 -68 -26 -140 -26 -751 1
-882 2 -11 7 -40 10 -65 3 -25 7 -56 10 -70 3 -14 8 -41 11 -60 22 -140 54
-265 121 -475 352 -1102 1256 -2002 2388 -2377 156 -51 407 -115 540 -137 33
-6 74 -13 90 -16 17 -2 53 -8 80 -11 28 -3 61 -8 75 -10 164 -26 699 -25 900
1 374 50 658 121 964 241 582 229 1120 609 1501 1064 44 52 82 97 85 100 3 3
25 32 49 65 25 33 47 62 51 65 14 12 163 243 215 334 187 327 321 675 399
1036 22 104 26 122 42 227 3 21 7 48 9 60 21 130 29 689 11 848 -13 122 -14
128 -20 163 -3 17 -8 45 -11 60 -4 25 -12 68 -41 212 -13 65 -59 227 -99 345
-105 315 -270 641 -468 925 -54 78 -147 199 -172 226 -5 6 -32 37 -60 70 -86
103 -338 348 -456 443 -63 51 -123 100 -134 108 -10 9 -84 60 -165 113 -135
90 -170 112 -290 178 -60 33 -279 142 -286 142 -3 0 -24 9 -48 19 -208 95
-593 212 -813 247 -19 3 -45 7 -57 10 -11 2 -32 6 -46 8 -14 3 -47 8 -75 11
-70 8 -123 14 -170 21 -45 7 -610 15 -616 10z"/>
</g>
</svg>
